<svg width="24" height="25" viewBox="0 0 24 25" fill="none" xmlns="http://www.w3.org/2000/svg">
<g id="eva:twitter-fill">
<path id="Vector" d="M8.08004 20.035C9.55874 20.0844 11.0323 19.837 12.4138 19.3073C13.7952 18.7775 15.0565 17.9762 16.1229 16.9508C17.1894 15.9253 18.0395 14.6964 18.623 13.3368C19.2065 11.9772 19.5115 10.5145 19.52 9.03496C20.1977 8.19637 20.7009 7.23079 21 6.19496C21.0224 6.11312 21.0206 6.02657 20.9949 5.94573C20.9691 5.86489 20.9206 5.79321 20.8551 5.73932C20.7896 5.68543 20.7099 5.65163 20.6256 5.64198C20.5413 5.63234 20.456 5.64726 20.38 5.68496C20.0255 5.85561 19.6264 5.91073 19.2389 5.84256C18.8514 5.77439 18.495 5.58636 18.22 5.30496C17.869 4.92053 17.4444 4.61049 16.9713 4.39318C16.4982 4.17588 15.9863 4.05574 15.466 4.03989C14.9456 4.02404 14.4274 4.11279 13.942 4.30089C13.4566 4.48899 13.0138 4.77262 12.64 5.13496C12.1282 5.63061 11.7534 6.25025 11.5519 6.93363C11.3503 7.61702 11.329 8.34091 11.49 9.03496C8.14004 9.23496 5.84004 7.64496 4.00004 5.46496C3.94476 5.40236 3.87246 5.35721 3.79194 5.33503C3.71143 5.31284 3.6262 5.31458 3.54667 5.34003C3.46713 5.36549 3.39672 5.41355 3.34405 5.47835C3.29137 5.54316 3.25871 5.6219 3.25004 5.70496C2.89951 7.64938 3.15237 9.6545 3.97466 11.451C4.79695 13.2475 6.14929 14.7494 7.85004 15.755C6.70968 17.0628 5.10825 17.8796 3.38004 18.035C3.28745 18.0503 3.20198 18.0942 3.13559 18.1606C3.0692 18.2269 3.02521 18.3123 3.00979 18.4049C2.99436 18.4975 3.00826 18.5926 3.04954 18.6769C3.09083 18.7611 3.15744 18.8304 3.24004 18.875C4.74356 19.6263 6.39927 20.0231 8.08004 20.035Z" fill="#FFEDD8"/>
</g>
</svg>
