<svg width="120" height="24" viewBox="0 0 120 24" fill="none" xmlns="http://www.w3.org/2000/svg">
<path d="M12.4799 9.60005V8.16005C12.4799 7.53605 12.6239 7.20005 13.6319 7.20005H14.8799V4.80005H12.9599C10.5599 4.80005 9.59993 6.38405 9.59993 8.16005V9.60005H7.67993V12H9.59993V19.2H12.4799V12H14.5919L14.8799 9.60005H12.4799Z" fill="#FFEDD8"/>
<path d="M55.8 2H64.2C67.4 2 70 4.6 70 7.8V16.2C70 17.7383 69.3889 19.2135 68.3012 20.3012C67.2135 21.3889 65.7383 22 64.2 22H55.8C52.6 22 50 19.4 50 16.2V7.8C50 6.26174 50.6111 4.78649 51.6988 3.69878C52.7865 2.61107 54.2617 2 55.8 2ZM55.6 4C54.6452 4 53.7295 4.37928 53.0544 5.05442C52.3793 5.72955 52 6.64522 52 7.6V16.4C52 18.39 53.61 20 55.6 20H64.4C65.3548 20 66.2705 19.6207 66.9456 18.9456C67.6207 18.2705 68 17.3548 68 16.4V7.6C68 5.61 66.39 4 64.4 4H55.6ZM65.25 5.5C65.5815 5.5 65.8995 5.6317 66.1339 5.86612C66.3683 6.10054 66.5 6.41848 66.5 6.75C66.5 7.08152 66.3683 7.39946 66.1339 7.63388C65.8995 7.8683 65.5815 8 65.25 8C64.9185 8 64.6005 7.8683 64.3661 7.63388C64.1317 7.39946 64 7.08152 64 6.75C64 6.41848 64.1317 6.10054 64.3661 5.86612C64.6005 5.6317 64.9185 5.5 65.25 5.5ZM60 7C61.3261 7 62.5979 7.52678 63.5355 8.46447C64.4732 9.40215 65 10.6739 65 12C65 13.3261 64.4732 14.5979 63.5355 15.5355C62.5979 16.4732 61.3261 17 60 17C58.6739 17 57.4021 16.4732 56.4645 15.5355C55.5268 14.5979 55 13.3261 55 12C55 10.6739 55.5268 9.40215 56.4645 8.46447C57.4021 7.52678 58.6739 7 60 7ZM60 9C59.2044 9 58.4413 9.31607 57.8787 9.87868C57.3161 10.4413 57 11.2044 57 12C57 12.7956 57.3161 13.5587 57.8787 14.1213C58.4413 14.6839 59.2044 15 60 15C60.7956 15 61.5587 14.6839 62.1213 14.1213C62.6839 13.5587 63 12.7956 63 12C63 11.2044 62.6839 10.4413 62.1213 9.87868C61.5587 9.31607 60.7956 9 60 9Z" fill="#FFEDD8"/>
<path d="M104.08 20C105.559 20.0495 107.032 19.8021 108.414 19.2723C109.795 18.7426 111.056 17.9413 112.123 16.9159C113.189 15.8904 114.04 14.6615 114.623 13.3019C115.206 11.9423 115.512 10.4795 115.52 9.00004C116.198 8.16146 116.701 7.19587 117 6.16004C117.022 6.07821 117.021 5.99166 116.995 5.91082C116.969 5.82998 116.921 5.7583 116.855 5.70441C116.79 5.65052 116.71 5.61672 116.626 5.60707C116.541 5.59743 116.456 5.61235 116.38 5.65004C116.026 5.8207 115.626 5.87582 115.239 5.80765C114.851 5.73948 114.495 5.55145 114.22 5.27004C113.869 4.88562 113.444 4.57557 112.971 4.35827C112.498 4.14097 111.986 4.02083 111.466 4.00498C110.946 3.98913 110.427 4.07788 109.942 4.26598C109.457 4.45408 109.014 4.73771 108.64 5.10004C108.128 5.5957 107.753 6.21533 107.552 6.89872C107.35 7.5821 107.329 8.306 107.49 9.00004C104.14 9.20004 101.84 7.61004 100 5.43004C99.9448 5.36745 99.8725 5.3223 99.7919 5.30011C99.7114 5.27793 99.6262 5.27967 99.5467 5.30512C99.4671 5.33057 99.3967 5.37864 99.344 5.44344C99.2914 5.50824 99.2587 5.58698 99.25 5.67004C98.8995 7.61447 99.1524 9.61959 99.9747 11.4161C100.797 13.2126 102.149 14.7145 103.85 15.72C102.71 17.0279 101.108 17.8447 99.38 18C99.2875 18.0154 99.202 18.0593 99.1356 18.1257C99.0692 18.192 99.0252 18.2774 99.0098 18.37C98.9944 18.4626 99.0083 18.5577 99.0495 18.6419C99.0908 18.7262 99.1574 18.7955 99.24 18.84C100.744 19.5914 102.399 19.9882 104.08 20Z" fill="#FFEDD8"/>
</svg>
